<svg xmlns="http://www.w3.org/2000/svg" viewBox="0 0 400 400">
  <circle cx="200" cy="200" r="200" fill="#7c2d12"/>
  <path d="m177.2 262.7-48.6-65.3-16.1 14.9v50.4H99.1V86.1h13.3v111.4l57.1-53.5h16.6l-48.6 45.3 56.3 73.5h-16.6v-.1zm113.9 25.6c-6.4 10.2-20.5 25.6-51.2 25.6S190 296 190 296l7.7-10.2c6.4 6.4 24.3 16.1 43.5 16.1 35.1 0 46.1-24.6 46.1-55.8v-8.7c-8.7 15.4-23.5 25.3-44.8 25.3-31.2 0-58.1-23.3-58.1-60.4s26.9-60.4 58.1-60.4c21.2 0 36.9 10.5 44.8 24.6V144h13.6v93.2c0 26.8-3.4 40.9-9.8 51.1zm-47.8-134.6c-29.4 0-44.8 21.5-44.8 48.4s15.4 48.6 44.8 48.6 44.8-21.8 44.8-48.6-15.4-48.4-44.8-48.4z" fill="#fbf6f0"/>
</svg>
